# xmcd CD database file
#
# Track frame offsets:
#	150
#	11883
#	29985
#	45317
#	63361
#	81689
#	107164
#	127702
#	144039
#	161119
#	186610
#	207193
#	237098
#	265890
#	282188
#	300529
#
# Disc length: 4283 seconds
#
# Revision: 5
# Processed by: cddbd v1.5.2PL0 Copyright (c) Steve Scherf et al.
# Submitted via: CDex 1.51
#
DISCID=e510b910
DTITLE=Ray Brown - Ultimate
DYEAR=1999
DGENRE=Jazz
TTITLE0=Solo for Unacompanied Bass
TTITLE1=Tricotism
TTITLE2=Tangerine
TTITLE3=Much in Common
TTITLE4=My One and Only Love
TTITLE5=Bric - a - Brac
TTITLE6=The Gravy Waltz
TTITLE7=Gravy Blues
TTITLE8=Will You Still Be Mine?
TTITLE9=Lined With a Groove
TTITLE10=Everything I Have is Yours
TTITLE11=Cool Walk
TTITLE12=I Just Can´t Fool Myself
TTITLE13=Baubles, Bangles and Beads
TTITLE14=All of You
TTITLE15=Indiana
EXTD=YEAR: 1999
EXTT0=
EXTT1=
EXTT2=
EXTT3=
EXTT4=
EXTT5=
EXTT6=
EXTT7=
EXTT8=
EXTT9=
EXTT10=
EXTT11=
EXTT12=
EXTT13=
EXTT14=
EXTT15=
PLAYORDER=
